<?xml version="1.0" standalone="no"?>
<!DOCTYPE svg PUBLIC "-//W3C//DTD SVG 20010904//EN"
 "http://www.w3.org/TR/2001/REC-SVG-20010904/DTD/svg10.dtd">
<svg version="1.0" xmlns="http://www.w3.org/2000/svg"
 width="512.000000pt" height="512.000000pt" viewBox="0 0 512.000000 512.000000"
 preserveAspectRatio="xMidYMid meet">

<g transform="translate(0.000000,512.000000) scale(0.100000,-0.100000)"
fill="#000000" stroke="none">
<path d="M685 4916 c-43 -19 -94 -74 -106 -116 -7 -23 -9 -770 -7 -2261 l3
-2225 24 -36 c13 -19 40 -46 59 -59 l36 -24 1866 0 1866 0 36 24 c19 13 46 40
59 59 l24 36 0 2246 0 2246 -24 36 c-13 19 -40 46 -59 59 l-36 24 -1855 2
c-1518 2 -1861 0 -1886 -11z m3675 -841 l0 -665 -1800 0 -1800 0 0 665 0 665
1800 0 1800 0 0 -665z m0 -1515 l0 -660 -1800 0 -1800 0 0 660 0 660 1800 0
1800 0 0 -660z m0 -1515 l0 -665 -1800 0 -1800 0 0 665 0 665 1800 0 1800 0 0
-665z"/>
<path d="M1948 4255 c-15 -9 -32 -24 -38 -35 -5 -10 -10 -77 -10 -148 0 -126
1 -130 26 -156 l27 -26 607 0 607 0 27 26 c25 26 26 30 26 156 0 71 -5 138
-10 149 -16 28 -67 51 -99 44 -50 -11 -73 -46 -78 -119 l-6 -66 -467 0 -467 0
-6 66 c-4 52 -10 72 -28 90 -31 30 -76 38 -111 19z"/>
<path d="M1929 2721 l-29 -29 0 -132 0 -132 29 -29 29 -29 602 0 602 0 29 29
29 29 0 132 0 132 -29 29 c-39 38 -80 39 -122 1 -27 -24 -32 -36 -36 -95 l-6
-67 -467 0 -467 0 -6 67 c-4 59 -9 71 -36 95 -42 38 -83 37 -122 -1z"/>
<path d="M1926 1204 c-25 -26 -26 -30 -26 -156 0 -74 5 -138 11 -150 25 -47
40 -48 654 -48 616 0 618 0 645 49 5 11 10 78 10 149 0 126 -1 130 -26 156
-29 28 -79 35 -116 15 -28 -15 -48 -69 -48 -129 l0 -50 -470 0 -470 0 0 50 c0
60 -20 114 -48 129 -37 20 -87 13 -116 -15z"/>
</g>
</svg>
