<svg xmlns="http://www.w3.org/2000/svg" width="24" height="24" viewBox="0 0 24 24">
    <g id="Group_477" data-name="Group 477" transform="translate(-1116 -253)">
        <rect id="Rectangle_185" data-name="Rectangle 185" width="24" height="24" transform="translate(1116 253)" fill="#fff"/>
        <g id="pdf-file" transform="translate(1073.195 253)">
            <path id="Path_335" data-name="Path 335" d="M58.6,0H48.73a2.589,2.589,0,0,0-2.615,2.554V12H45.86a1.042,1.042,0,0,0-1.054,1.029v6.242A1.041,1.041,0,0,0,45.86,20.3h.255v1.145A2.588,2.588,0,0,0,48.73,24H62.192a2.588,2.588,0,0,0,2.614-2.554V6.046Zm3.6,22.436H48.73a1,1,0,0,1-1.013-.99V20.3h12.55a1.041,1.041,0,0,0,1.054-1.029V13.029A1.041,1.041,0,0,0,60.267,12H47.717V2.554a1,1,0,0,1,1.013-.988L58,1.556V4.9A1.793,1.793,0,0,0,59.81,6.675l3.356-.009.038,14.78A1,1,0,0,1,62.192,22.436Z" fill="#008000"/>
            <path id="Path_341" data-name="Path 341" d="M2-2.744l.742-1.518H3.949L2.66-2.03,4.048.24H2.78L2.014-1.309,1.247.24H.041L1.364-2.03.075-4.262h1.2ZM5.443-.564H7.375v.8H4.4v-4.5H5.443Zm4.814-.39a.449.449,0,0,0-.158-.369A2.045,2.045,0,0,0,9.527-1.6a4.342,4.342,0,0,1-1.244-.58,1.044,1.044,0,0,1-.407-.886,1.086,1.086,0,0,1,.473-.915,1.971,1.971,0,0,1,1.2-.349,1.984,1.984,0,0,1,1.24.36,1.168,1.168,0,0,1,.455,1.016l-.006.019H10.226a.568.568,0,0,0-.173-.462.8.8,0,0,0-.523-.144.671.671,0,0,0-.448.139.433.433,0,0,0-.164.343.37.37,0,0,0,.169.317,3.29,3.29,0,0,0,.629.3,3.353,3.353,0,0,1,1.184.566,1.126,1.126,0,0,1,.4.915,1.083,1.083,0,0,1-.464.929A2.055,2.055,0,0,1,9.607.3a2.249,2.249,0,0,1-1.294-.36A1.24,1.24,0,0,1,7.8-1.189L7.8-1.207H8.822a.7.7,0,0,0,.193.558.894.894,0,0,0,.592.165.768.768,0,0,0,.489-.13A.416.416,0,0,0,10.257-.954Z" transform="translate(48.132 18.327)" fill="#fff"/>
        </g>
    </g>
</svg>
