<svg xmlns="http://www.w3.org/2000/svg" width="23" height="24" viewBox="0 0 23 24">
    <g id="icon-Filter" transform="translate(-1 -1)">
        <g id="filter" transform="translate(1 1)">
            <path id="Path" d="M22.009,0H.991a.985.985,0,0,0-.88.546A1.035,1.035,0,0,0,.188,1.607l7.7,11.043.008.011a2.266,2.266,0,0,1,.432,1.329v9a1.011,1.011,0,0,0,.286.712.976.976,0,0,0,.7.3.994.994,0,0,0,.388-.079l4.327-1.679a.953.953,0,0,0,.645-.941V13.989a2.267,2.267,0,0,1,.432-1.329l.008-.011,7.7-11.043a1.034,1.034,0,0,0,.078-1.06A.985.985,0,0,0,22.009,0Z" fill="#707070"/>
        </g>
    </g>
</svg>
