<svg xmlns="http://www.w3.org/2000/svg" width="191.798" height="31.368" viewBox="0 0 191.798 31.368">
  <g id="Group_230" data-name="Group 230" transform="translate(-842.764 -423.125)">
    <path id="Path_260" data-name="Path 260" d="M8.254,30.37h2.263V0H8.254V30.37Zm-4.127,0H5.992V0H4.127V30.37Zm8.254,0h2.664V0H12.381ZM0,30.37H1.464V0H0Zm24.762,0h3.861V0H24.762Zm-8.254,0h3.062V0H16.509Zm12.381,0Zm-8.254,0H24.1V0H20.635Z" transform="translate(871.653 453.994) rotate(180)" fill="#fff"/>
    <g id="Group_229" data-name="Group 229" transform="translate(873.927 423.125)">
      <g id="Group_218" data-name="Group 218" transform="translate(0 0.339)">
        <path id="Path_261" data-name="Path 261" d="M126.091,58.862h-7.838V28.172h7.54c4.988,0,7.412,2.4,7.412,7.328v1.059c0,2.834-.8,4.788-2.446,5.941,1.958,1.142,2.913,3.247,2.913,6.4v2.417C133.673,56.184,130.98,58.862,126.091,58.862Zm-6.841-1h6.841c4.37,0,6.586-2.2,6.586-6.544V48.9c0-3.184-1-5.058-3.162-5.9l-1.082-.421,1.052-.494c1.859-.873,2.725-2.631,2.725-5.531V35.5c0-4.379-1.979-6.331-6.416-6.331H119.25v28.7Zm6.841-3.246H122.92V44.5H125.5c2.493,0,3.509,1.189,3.509,4.1v2.588C129.007,53.531,128.08,54.619,126.091,54.619Zm-2.175-1h2.175c1.216,0,1.919-.4,1.919-2.428V48.606c0-2.642-.81-3.107-2.513-3.107h-1.58v8.124Zm1.325-12.365h-2.321V32.413h2.746c1.934,0,2.874,1.162,2.874,3.552V37.62C128.54,40.068,127.461,41.257,125.242,41.257Zm-1.325-1h1.325c1.381,0,2.3-.449,2.3-2.641V35.967c0-2.122-.751-2.557-1.877-2.557h-1.75Z" transform="translate(-118.253 -28.172)" fill="#fff"/>
      </g>
      <g id="Group_219" data-name="Group 219" transform="translate(17.223 0.339)">
        <path id="Path_262" data-name="Path 262" d="M183.447,58.862h-13.34V28.172h5.663V53.623h7.678Zm-12.344-1h11.347V54.619h-7.678V29.168H171.1Z" transform="translate(-170.107 -28.172)" fill="#fff"/>
      </g>
      <g id="Group_220" data-name="Group 220" transform="translate(31.222)">
        <path id="Path_263" data-name="Path 263" d="M219.836,58.518c-4.818,0-7.582-2.9-7.582-7.963V35.114c0-5.062,2.763-7.964,7.582-7.964s7.582,2.9,7.582,7.964V50.555C227.418,55.616,224.654,58.518,219.836,58.518Zm0-30.372c-4.246,0-6.585,2.474-6.585,6.968V50.555c0,4.492,2.339,6.966,6.585,6.966s6.586-2.474,6.586-6.966V35.114C226.421,30.621,224.082,28.146,219.836,28.146Zm0,26.13c-1.33,0-2.916-.594-2.916-3.425V34.818c0-2.831,1.586-3.425,2.916-3.425s2.916.594,2.916,3.425V50.852C222.751,53.682,221.165,54.276,219.836,54.276Zm0-21.887c-.893,0-1.919.276-1.919,2.429V50.852c0,2.152,1.026,2.428,1.919,2.428s1.919-.275,1.919-2.428V34.818C221.755,32.665,220.729,32.389,219.836,32.389Z" transform="translate(-212.254 -27.15)" fill="#fff"/>
      </g>
      <g id="Group_221" data-name="Group 221" transform="translate(48.02)">
        <path id="Path_264" data-name="Path 264" d="M270.41,58.518c-4.819,0-7.582-2.9-7.582-7.963V35.114c0-5.062,2.763-7.964,7.582-7.964s7.582,2.9,7.582,7.964V50.555C277.992,55.616,275.229,58.518,270.41,58.518Zm0-30.372c-4.246,0-6.586,2.474-6.586,6.968V50.555c0,4.492,2.339,6.966,6.586,6.966S277,55.047,277,50.555V35.114C277,30.621,274.657,28.146,270.41,28.146Zm0,26.13c-1.33,0-2.916-.594-2.916-3.425V34.818c0-2.831,1.586-3.425,2.916-3.425s2.916.594,2.916,3.425V50.852C273.326,53.682,271.741,54.276,270.41,54.276Zm0-21.887c-.894,0-1.919.276-1.919,2.429V50.852c0,2.152,1.026,2.428,1.919,2.428s1.919-.275,1.919-2.428V34.818C272.33,32.665,271.3,32.389,270.41,32.389Z" transform="translate(-262.828 -27.15)" fill="#fff"/>
      </g>
      <g id="Group_222" data-name="Group 222" transform="translate(65.199 0.339)">
        <path id="Path_265" data-name="Path 265" d="M322.431,58.862h-7.879V28.172h7.879c4.877,0,7.455,2.71,7.455,7.838V51.025C329.886,56.152,327.308,58.862,322.431,58.862Zm-6.882-1h6.883c4.285,0,6.457-2.3,6.457-6.841V36.01c0-4.539-2.173-6.841-6.457-6.841h-6.883Zm6.8-3.246h-3.128V32.413h3.128c1.907,0,2.873,1.138,2.873,3.384V51.238C325.219,53.482,324.253,54.619,322.346,54.619Zm-2.132-1h2.132c.975,0,1.877-.289,1.877-2.385V35.8c0-2.1-.9-2.387-1.877-2.387h-2.132Z" transform="translate(-314.552 -28.172)" fill="#fff"/>
      </g>
      <g id="Group_223" data-name="Group 223" transform="translate(82.285 0.498)">
        <path id="Path_266" data-name="Path 266" d="M372.991,28.649c4.538,0,6.872,2.715,6.872,7.466v.934h-4.412v-1.23c0-2.121-.849-2.927-2.333-2.927s-2.332.806-2.332,2.927c0,6.108,9.12,7.253,9.12,15.738,0,4.75-2.375,7.465-6.957,7.465s-6.956-2.715-6.956-7.465V49.732H370.4v2.121c0,2.121.933,2.884,2.416,2.884s2.418-.764,2.418-2.884c0-6.109-9.12-7.254-9.12-15.738C366.119,31.364,368.452,28.649,372.991,28.649Z" transform="translate(-365.993 -28.649)" fill="#fff"/>
      </g>
      <g id="Group_224" data-name="Group 224" transform="translate(98.87 0.838)">
        <path id="Path_267" data-name="Path 267" d="M429.755,37.012v3.86c0,4.751-2.29,7.338-6.957,7.338h-2.206V59.367h-4.666V29.673H422.8C427.463,29.673,429.755,32.26,429.755,37.012Zm-9.163-3.1V43.967H422.8c1.486,0,2.29-.678,2.29-2.8V36.714c0-2.12-.806-2.8-2.29-2.8h-2.206Z" transform="translate(-415.926 -29.673)" fill="#fff"/>
      </g>
      <g id="Group_225" data-name="Group 225" transform="translate(113.082 0.838)">
        <path id="Path_268" data-name="Path 268" d="M475.045,59.365h-4.708l-.806-5.388H463.8L463,59.365h-4.283l4.751-29.693h6.829ZM464.4,49.948h4.5l-2.249-15.016Z" transform="translate(-458.714 -29.672)" fill="#fff"/>
      </g>
      <g id="Group_226" data-name="Group 226" transform="translate(131.154 0.498)">
        <path id="Path_269" data-name="Path 269" d="M527.037,47.611v3.946c0,4.75-2.375,7.465-6.957,7.465s-6.956-2.715-6.956-7.465V36.116c0-4.752,2.375-7.466,6.956-7.466s6.957,2.715,6.957,7.466V39h-4.412V35.82c0-2.121-.933-2.927-2.417-2.927s-2.418.806-2.418,2.927V51.854c0,2.121.934,2.884,2.418,2.884s2.417-.764,2.417-2.884V47.611Z" transform="translate(-513.124 -28.65)" fill="#fff"/>
      </g>
      <g id="Group_227" data-name="Group 227" transform="translate(147.909 0.838)">
        <path id="Path_270" data-name="Path 270" d="M568.234,42.187h6.405v4.242h-6.405v8.7h8.06v4.242H563.569V29.673h12.725v4.242h-8.06Z" transform="translate(-563.569 -29.673)" fill="#fff"/>
      </g>
    </g>
  </g>
</svg>
