<svg xmlns="http://www.w3.org/2000/svg" width="24" height="24" viewBox="0 0 24 24">
    <g id="Group_453" data-name="Group 453" transform="translate(-1116 -253)">
        <rect id="Rectangle_185" data-name="Rectangle 185" width="24" height="24" transform="translate(1116 253)" fill="#fff"/>
        <g id="pdf-file" transform="translate(1073.195 253)">
            <path id="Path_333" data-name="Path 333" d="M119.7,298.048c0-.4-.277-.636-.765-.636a1.692,1.692,0,0,0-.4.038v1.279a1.533,1.533,0,0,0,.328.025C119.381,298.754,119.7,298.492,119.7,298.048Z" transform="translate(-69.965 -282.607)" fill="#F40F02"/>
            <path id="Path_334" data-name="Path 334" d="M194.247,297.681a2.019,2.019,0,0,0-.443.038v2.832a1.771,1.771,0,0,0,.341.02,1.342,1.342,0,0,0,1.465-1.516A1.242,1.242,0,0,0,194.247,297.681Z" transform="translate(-141.388 -282.863)" fill="#F40F02"/>
            <path id="Path_335" data-name="Path 335" d="M58.6,0H48.73a2.589,2.589,0,0,0-2.615,2.554V12H45.86a1.042,1.042,0,0,0-1.054,1.029v6.242A1.041,1.041,0,0,0,45.86,20.3h.255v1.145A2.588,2.588,0,0,0,48.73,24H62.192a2.588,2.588,0,0,0,2.614-2.554V6.046ZM47.57,14.156a8.45,8.45,0,0,1,1.354-.089,2.161,2.161,0,0,1,1.354.347,1.254,1.254,0,0,1,.473,1,1.367,1.367,0,0,1-.408,1.028,2.087,2.087,0,0,1-1.44.456,2.655,2.655,0,0,1-.342-.019v1.548H47.57Zm14.622,8.28H48.73a1,1,0,0,1-1.013-.99V20.3h12.55a1.041,1.041,0,0,0,1.054-1.029V13.029A1.041,1.041,0,0,0,60.267,12H47.717V2.554a1,1,0,0,1,1.013-.988L58,1.556V4.9A1.793,1.793,0,0,0,59.81,6.675l3.356-.009.038,14.78A1,1,0,0,1,62.192,22.436Zm-10.8-4.028V14.156a9.233,9.233,0,0,1,1.354-.089,2.9,2.9,0,0,1,1.815.462,1.9,1.9,0,0,1,.749,1.632,2.171,2.171,0,0,1-.736,1.753,3.235,3.235,0,0,1-2.044.559A8.875,8.875,0,0,1,51.392,18.408Zm7.175-2.518v.8H56.976v1.741H55.97V14.1h2.709v.8h-1.7v.989Z" fill="#F40F02"/>
        </g>
    </g>
</svg>
