<svg xmlns="http://www.w3.org/2000/svg" width="50" height="50" viewBox="0 0 50 50">
  <g id="Group_484" data-name="Group 484" transform="translate(-659 -104)">
    <circle id="Ellipse_1" data-name="Ellipse 1" cx="25" cy="25" r="25" transform="translate(659 104)" fill="#e59740"/>
    <path id="Path_343" data-name="Path 343" d="M13.633,4.038a3.84,3.84,0,0,1,6.695,0L31.044,23.089A3.839,3.839,0,0,1,27.7,28.812H6.264a3.84,3.84,0,0,1-3.347-5.723L13.633,4.038ZM18.9,23.053a1.921,1.921,0,1,1-1.921-1.921A1.921,1.921,0,0,1,18.9,23.053ZM16.98,7.689A1.921,1.921,0,0,0,15.06,9.609v5.762a1.921,1.921,0,1,0,3.841,0V9.609A1.921,1.921,0,0,0,16.98,7.689Z" transform="translate(666.02 111.055)" fill="#fff" fill-rule="evenodd"/>
  </g>
</svg>
